<?xml version="1.0" encoding="UTF-8" standalone="no"?>
<svg
   xmlns:dc="http://purl.org/dc/elements/1.1/"
   xmlns:cc="http://creativecommons.org/ns#"
   xmlns:rdf="http://www.w3.org/1999/02/22-rdf-syntax-ns#"
   xmlns:svg="http://www.w3.org/2000/svg"
   xmlns="http://www.w3.org/2000/svg"
   version="1.1"
   id="svg833"
   width="150"
   height="130"
   viewBox="0 0 150 130">
  <metadata
     id="metadata839">
    <rdf:RDF>
      <cc:Work
         rdf:about="">
        <dc:format>image/svg+xml</dc:format>
        <dc:type
           rdf:resource="http://purl.org/dc/dcmitype/StillImage" />
        <dc:title></dc:title>
      </cc:Work>
    </rdf:RDF>
  </metadata>
  <defs
     id="defs837" />
  <g
     id="g841">
    <path
       style="fill:#fe6231;stroke-width:0.32"
       d="m 22.413545,130.78233 c -0.32,-0.2068 -0.34667,-0.31183 -0.08,-0.3151 0.24193,-0.003 0.1471,-0.2578 -0.24,-0.6449 -0.81714,-0.81714 -0.84655,-2.59388 -0.0548,-3.3104 0.74116,-0.67075 2.73224,-0.68645 3.39194,-0.0268 0.65345,0.65345 0.65345,2.82084 0,3.47429 -0.37734,0.37735 -0.39731,0.50407 -0.08,0.50775 0.31232,0.004 0.29738,0.086 -0.0571,0.3151 -0.264,0.17062 -0.912,0.31021 -1.44,0.31021 -0.528,0 -1.176,-0.13959 -1.44,-0.31021 z m 18.62086,-4.49241 c -2.40581,-0.48975 -3.93462,-1.565 -4.92537,-3.46413 -1.32036,-2.53096 -1.23744,-4.98997 0.38451,-11.40347 1.8981,-7.50542 1.65856,-10.09919 -1.20446,-13.042056 -1.44299,-1.483236 -3.41044,-2.239434 -8.11424,-3.118753 -6.71087,-1.254515 -8.40206,-2.572348 -8.21216,-6.39919 0.0802,-1.615939 0.37711,-2.651152 1.33082,-4.64 2.19664,-4.580819 2.0017,-6.385293 -1.52132,-14.082224 -1.78942,-3.909466 -2.23566,-5.980627 -1.76319,-8.18367 0.48001,-2.238237 1.87865,-3.897309 5.40455,-6.410922 4.256,-3.034106 7.9954,-7.050675 9.62403,-10.337392 1.58831,-3.205334 1.80094,-4.992026 1.12371,-9.442157 -1.19589,-7.85821 -0.31828,-11.594959 3.2086,-13.661848 0.78898,-0.462375 3.01273,-1.396596 4.94166,-2.076046 4.34886,-1.531847 5.73253,-2.230464 7.40663,-3.739601 2.08424,-1.878866 2.80851,-3.793663 2.81224,-7.434939 0.004,-3.8606608 0.34618,-4.472119 2.50127,-4.4690934 1.90326,0.00269 2.82021,0.6075526 4.6132,3.0431577 2.68455,3.6467037 4.0052,4.3111657 8.56866,4.3111657 3.3413,0 4.2412,-0.237889 9.25848,-2.4475096 5.07877,-2.2367002 7.21135,-2.7852833 10.09512,-2.5968685 2.88856,0.1887276 4.13689,0.8436281 7.48311,3.9257911 3.12901,2.882101 4.10777,3.362156 6.854925,3.362156 2.40574,0 4.73593,-0.640882 7.58783,-2.086906 2.80085,-1.420147 4.41395,-2.877429 6.53381,-5.9027003 2.78581,-3.9756446 5.76391,-5.24027059 9.45408,-4.0145946 3.34773,1.1119402 5.21432,3.9069155 5.192,7.7743893 -0.0175,3.0324236 -1.05167,4.9196396 -4.03995,7.3722626 -1.35123,1.109018 -2.76557,2.612269 -3.27804,3.484097 -0.84734,1.441542 -0.90137,1.754018 -0.90137,5.213452 0,3.328082 0.0825,3.85604 0.86268,5.520845 1.07948,2.303443 3.57321,4.970544 5.77386,6.175261 1.56707,0.857875 1.99418,0.933424 6.17788,1.092742 5.3631,0.204234 6.232,0.55352 6.2154,2.498528 -0.0181,2.125322 -1.23149,2.929696 -5.38054,3.566925 -2.54844,0.391401 -3.58376,0.820675 -5.14241,2.132195 -3.03647,2.555021 -2.54701,5.029939 2.53236,12.804656 6.62918,10.146944 6.60226,13.544522 -0.17852,22.528848 -5.04521,6.684742 -6.11073,10.139955 -4.19398,13.6 0.48749,0.88 2.11767,2.965353 3.62261,4.634119 3.54171,3.92722 4.72032,6.15768 4.73775,8.96588 0.0164,2.64034 -0.73086,4.0342 -2.71441,5.0633 -1.19495,0.61995 -1.78584,0.72034 -3.56098,0.60499 -2.78425,-0.18093 -5.13384,-1.29113 -10.07556,-4.76081 -2.44709,-1.71815 -4.52844,-2.91988 -5.68979,-3.28517 -5.07743,-1.59705 -9.8485,0.79645 -16.623075,8.33928 -5.46084,6.08012 -8.49723,8.10499 -12.54868,8.36832 -3.00417,0.19526 -4.96668,-0.40155 -10.37163,-3.15413 -8.45398,-4.30535 -11.09917,-4.17563 -19.34269,0.94857 -6.98602,4.34253 -10.74563,5.59145 -14.51941,4.82325 z M 105.37369,102.0587 c 3.44151,-1.70534 5.86254,-4.170104 7.52602,-7.662001 1.1086,-2.327117 1.19593,-2.730413 1.30227,-6.014378 0.13273,-4.098582 -0.34341,-5.934979 -2.49164,-9.609955 -1.47838,-2.529072 -3.80426,-7.894227 -5.18644,-11.963703 -3.47917,-10.243523 -5.10338,-22.516268 -4.39251,-33.19038 0.32301,-4.850115 0.30594,-5.249887 -0.28078,-6.576258 -2.376207,-5.371794 -8.615915,-7.020594 -12.974015,-3.428287 -0.6496,0.535458 -1.74318,1.93544 -2.43018,3.111071 -4.3068,7.370021 -11.77706,15.799586 -19.41181,21.9046 -6.20677,4.963155 -17.23581,11.232403 -22.95149,13.046339 -9.04113,2.869306 -12.1307,13.278928 -5.93824,20.007578 2.68445,2.916886 4.78963,3.729462 11.14867,4.303254 9.20641,0.830714 18.17002,3.246855 27.04,7.288624 3.8942,1.774471 10.18665,5.34404 12.43023,7.051406 3.47018,2.64082 5.60932,3.29324 10.354246,3.15793 3.465659,-0.0988 3.673039,-0.1461 6.255669,-1.42584 z M 79.373545,72.509457 c -5.75433,-0.646957 -13.23778,-2.572531 -14.81289,-3.81152 -1.8019,-1.417373 -1.46527,-2.872189 1.77609,-7.675616 4.5295,-6.712358 11.07756,-13.019171 17.76951,-17.114826 1.80834,-1.106755 2.13016,-1.202051 3.16934,-0.938505 1.77791,0.450899 2.26798,1.415011 2.64685,5.207235 0.64776,6.483456 0.26222,13.060602 -1.14693,19.566096 -1.0253,4.733418 -1.39971,5.137997 -4.69982,5.078483 -1.26618,-0.02283 -3.38215,-0.162937 -4.70215,-0.311347 z m 26.239995,49.432713 c -1.78608,-0.71991 -1.64239,-4.49932 0.2522,-6.63349 1.70511,-1.92072 6.0071,-2.7009 8.33749,-1.51202 1.41433,0.72154 1.97031,1.76452 1.97031,3.69617 0,2.81704 -2.32999,4.2114 -7.52,4.50031 -1.408,0.0784 -2.776,0.0554 -3.04,-0.051 z m -92.319995,-2.46104 c -1.84793,-0.88712 -2.50253,-1.54016 -3.1878,-3.18023 -0.5754597,-1.37727 -0.6396097,-4.33472 -0.13358,-6.15752 0.55546,-2.00083 2.6022,-3.83228 4.84138,-4.33215 6.60379,-1.47421 11.50427,4.79845 8.44497,10.80964 -1.25898,2.47374 -2.8417,3.41538 -5.94157,3.53491 -2.02336,0.078 -2.68752,-0.0333 -4.0234,-0.67465 z M 2.4985955,67.723124 C 1.8092555,67.359166 1.0366995,66.586612 0.67273851,65.897268 0.3257385,65.240046 0.0332595,64.918321 0.0227865,65.182321 c -0.01693,0.426666 -0.05351,0.426666 -0.329243,0 -0.378058,-0.585005 -0.378058,-3.120211 0,-4 l 0.275017,-0.64 0.02299,0.64 c 0.01715,0.477517 0.165036,0.35727 0.58249101,-0.473622 1.25242399,-2.4928 4.79956399,-3.407236 7.15218399,-1.843796 1.2560595,0.83472 2.5304995,3.133108 2.5202895,4.545223 -0.011,1.521677 -1.11725,3.606717 -2.2943695,4.324387 -1.38308,0.843245 -3.84461,0.838102 -5.45355,-0.01139 z M 146.12081,43.4005 c -0.51299,-0.149065 -1.05079,-0.457139 -1.19509,-0.684605 -0.40622,-0.640307 -0.31896,-3.267276 0.12887,-3.879718 0.91777,-1.25513 4.27988,-0.898288 4.64368,0.492861 0.17423,0.666249 0.19348,0.669821 0.41077,0.07615 0.18265,-0.499008 0.27527,-0.38008 0.46579,0.598099 0.14001,0.718845 0.0988,1.508442 -0.10009,1.92 -0.18583,0.384471 -0.34763,0.511008 -0.35954,0.281194 -0.0127,-0.245875 -0.31799,-0.09431 -0.74166,0.368259 -0.84539,0.923005 -1.95404,1.205139 -3.25273,0.827763 z M 134.79494,31.913355 c -3.10225,-1.946603 -3.08881,-8.683172 0.0211,-10.574414 1.52306,-0.926225 3.37748,-1.103502 4.95221,-0.473416 1.87277,0.749331 2.80663,2.672041 2.79608,5.756796 -0.009,2.579133 -0.56522,3.887958 -2.12501,4.998624 -1.46516,1.04328 -4.22026,1.18601 -5.64436,0.29241 z M 37.293545,12.417507 c -2.42857,-1.120855 -3.68,-3.2556596 -3.68,-6.277657 0,-2.8135398 1.36608,-4.8856769 3.88645,-5.89514789 0.67797,-0.27154601 0.68936,-0.30610501 0.11355,-0.34459001 l -0.64,-0.04277 0.64,-0.2750171 c 0.88221,-0.3791 4.37338,-0.3791 4.96,0 0.42666,0.2757331 0.42666,0.3113291 0,0.3203641 -0.264,0.0056 0.09,0.33301701 0.78669,0.72761501 1.93362,1.09519699 3.14413,3.04021519 3.30878,5.31645199 0.1779,2.4594669 -0.32624,3.8959353 -1.85067,5.2731649 -2.02529,1.829724 -5.09619,2.318466 -7.5248,1.197591 z m -13.6,-2.182205 c -1.12638,-0.4141646 -1.6,-1.166795 -1.6,-2.5425781 0,-1.8299632 0.81027,-2.6704038 2.57454,-2.6704038 3.10238,0 4.08664,4.0885809 1.22446,5.0863419 -1.0916,0.380533 -1.45204,0.401291 -2.199,0.12664 z"
       id="use3895" />
    <text
       xml:space="preserve"
       style="font-style:normal;font-weight:normal;font-size:40px;line-height:1.25;font-family:sans-serif;fill:#000000;fill-opacity:1;stroke:none"
       x="184.83385"
       y="47.057438"
       id="text3901"><tspan
         id="tspan3899"
         x="184.83385"
         y="47.057438" /></text>
  </g>
</svg>
