<?xml version="1.0" encoding="UTF-8" standalone="no"?>
<svg
   xmlns:osb="http://www.openswatchbook.org/uri/2009/osb"
   xmlns:dc="http://purl.org/dc/elements/1.1/"
   xmlns:cc="http://creativecommons.org/ns#"
   xmlns:rdf="http://www.w3.org/1999/02/22-rdf-syntax-ns#"
   xmlns:svg="http://www.w3.org/2000/svg"
   xmlns="http://www.w3.org/2000/svg"
   version="1.1"
   id="svg833"
   width="640"
   height="130"
   viewBox="0 0 640 130">
  <metadata
     id="metadata839">
    <rdf:RDF>
      <cc:Work
         rdf:about="">
        <dc:format>image/svg+xml</dc:format>
        <dc:type
           rdf:resource="http://purl.org/dc/dcmitype/StillImage" />
        <dc:title></dc:title>
      </cc:Work>
    </rdf:RDF>
  </metadata>
  <defs
     id="defs837">
    <linearGradient
       id="linearGradient2853"
       osb:paint="solid">
      <stop
         style="stop-color:#fe6231;stop-opacity:1;"
         offset="0"
         id="stop2851" />
    </linearGradient>
  </defs>
  <g
     id="g841">
    <path
       style="fill:#fe6231;stroke-width:0.32"
       d="m 22.413545,130.78233 c -0.32,-0.2068 -0.34667,-0.31183 -0.08,-0.3151 0.24193,-0.003 0.1471,-0.2578 -0.24,-0.6449 -0.81714,-0.81714 -0.84655,-2.59388 -0.0548,-3.3104 0.74116,-0.67075 2.73224,-0.68645 3.39194,-0.0268 0.65345,0.65345 0.65345,2.82084 0,3.47429 -0.37734,0.37735 -0.39731,0.50407 -0.08,0.50775 0.31232,0.004 0.29738,0.086 -0.0571,0.3151 -0.264,0.17062 -0.912,0.31021 -1.44,0.31021 -0.528,0 -1.176,-0.13959 -1.44,-0.31021 z m 18.62086,-4.49241 c -2.40581,-0.48975 -3.93462,-1.565 -4.92537,-3.46413 -1.32036,-2.53096 -1.23744,-4.98997 0.38451,-11.40347 1.8981,-7.50542 1.65856,-10.09919 -1.20446,-13.042056 -1.44299,-1.483236 -3.41044,-2.239434 -8.11424,-3.118753 -6.71087,-1.254515 -8.40206,-2.572348 -8.21216,-6.39919 0.0802,-1.615939 0.37711,-2.651152 1.33082,-4.64 2.19664,-4.580819 2.0017,-6.385293 -1.52132,-14.082224 -1.78942,-3.909466 -2.23566,-5.980627 -1.76319,-8.18367 0.48001,-2.238237 1.87865,-3.897309 5.40455,-6.410922 4.256,-3.034106 7.9954,-7.050675 9.62403,-10.337392 1.58831,-3.205334 1.80094,-4.992026 1.12371,-9.442157 -1.19589,-7.85821 -0.31828,-11.594959 3.2086,-13.661848 0.78898,-0.462375 3.01273,-1.396596 4.94166,-2.076046 4.34886,-1.531847 5.73253,-2.230464 7.40663,-3.739601 2.08424,-1.878866 2.80851,-3.793663 2.81224,-7.434939 0.004,-3.8606608 0.34618,-4.472119 2.50127,-4.4690934 1.90326,0.00269 2.82021,0.6075526 4.6132,3.0431577 2.68455,3.6467037 4.0052,4.3111657 8.56866,4.3111657 3.3413,0 4.2412,-0.237889 9.25848,-2.4475096 5.07877,-2.2367002 7.21135,-2.7852833 10.09512,-2.5968685 2.88856,0.1887276 4.13689,0.8436281 7.48311,3.9257911 3.12901,2.882101 4.10777,3.362156 6.854925,3.362156 2.40574,0 4.73593,-0.640882 7.58783,-2.086906 2.80085,-1.420147 4.41395,-2.877429 6.53381,-5.9027003 2.78581,-3.9756446 5.76391,-5.24027059 9.45408,-4.0145946 3.34773,1.1119402 5.21432,3.9069155 5.192,7.7743893 -0.0175,3.0324236 -1.05167,4.9196396 -4.03995,7.3722626 -1.35123,1.109018 -2.76557,2.612269 -3.27804,3.484097 -0.84734,1.441542 -0.90137,1.754018 -0.90137,5.213452 0,3.328082 0.0825,3.85604 0.86268,5.520845 1.07948,2.303443 3.57321,4.970544 5.77386,6.175261 1.56707,0.857875 1.99418,0.933424 6.17788,1.092742 5.3631,0.204234 6.232,0.55352 6.2154,2.498528 -0.0181,2.125322 -1.23149,2.929696 -5.38054,3.566925 -2.54844,0.391401 -3.58376,0.820675 -5.14241,2.132195 -3.03647,2.555021 -2.54701,5.029939 2.53236,12.804656 6.62918,10.146944 6.60226,13.544522 -0.17852,22.528848 -5.04521,6.684742 -6.11073,10.139955 -4.19398,13.6 0.48749,0.88 2.11767,2.965353 3.62261,4.634119 3.54171,3.92722 4.72032,6.15768 4.73775,8.96588 0.0164,2.64034 -0.73086,4.0342 -2.71441,5.0633 -1.19495,0.61995 -1.78584,0.72034 -3.56098,0.60499 -2.78425,-0.18093 -5.13384,-1.29113 -10.07556,-4.76081 -2.44709,-1.71815 -4.52844,-2.91988 -5.68979,-3.28517 -5.07743,-1.59705 -9.8485,0.79645 -16.623075,8.33928 -5.46084,6.08012 -8.49723,8.10499 -12.54868,8.36832 -3.00417,0.19526 -4.96668,-0.40155 -10.37163,-3.15413 -8.45398,-4.30535 -11.09917,-4.17563 -19.34269,0.94857 -6.98602,4.34253 -10.74563,5.59145 -14.51941,4.82325 z M 105.37369,102.0587 c 3.44151,-1.70534 5.86254,-4.170104 7.52602,-7.662001 1.1086,-2.327117 1.19593,-2.730413 1.30227,-6.014378 0.13273,-4.098582 -0.34341,-5.934979 -2.49164,-9.609955 -1.47838,-2.529072 -3.80426,-7.894227 -5.18644,-11.963703 -3.47917,-10.243523 -5.10338,-22.516268 -4.39251,-33.19038 0.32301,-4.850115 0.30594,-5.249887 -0.28078,-6.576258 -2.376207,-5.371794 -8.615915,-7.020594 -12.974015,-3.428287 -0.6496,0.535458 -1.74318,1.93544 -2.43018,3.111071 -4.3068,7.370021 -11.77706,15.799586 -19.41181,21.9046 -6.20677,4.963155 -17.23581,11.232403 -22.95149,13.046339 -9.04113,2.869306 -12.1307,13.278928 -5.93824,20.007578 2.68445,2.916886 4.78963,3.729462 11.14867,4.303254 9.20641,0.830714 18.17002,3.246855 27.04,7.288624 3.8942,1.774471 10.18665,5.34404 12.43023,7.051406 3.47018,2.64082 5.60932,3.29324 10.354246,3.15793 3.465659,-0.0988 3.673039,-0.1461 6.255669,-1.42584 z M 79.373545,72.509457 c -5.75433,-0.646957 -13.23778,-2.572531 -14.81289,-3.81152 -1.8019,-1.417373 -1.46527,-2.872189 1.77609,-7.675616 4.5295,-6.712358 11.07756,-13.019171 17.76951,-17.114826 1.80834,-1.106755 2.13016,-1.202051 3.16934,-0.938505 1.77791,0.450899 2.26798,1.415011 2.64685,5.207235 0.64776,6.483456 0.26222,13.060602 -1.14693,19.566096 -1.0253,4.733418 -1.39971,5.137997 -4.69982,5.078483 -1.26618,-0.02283 -3.38215,-0.162937 -4.70215,-0.311347 z m 26.239995,49.432713 c -1.78608,-0.71991 -1.64239,-4.49932 0.2522,-6.63349 1.70511,-1.92072 6.0071,-2.7009 8.33749,-1.51202 1.41433,0.72154 1.97031,1.76452 1.97031,3.69617 0,2.81704 -2.32999,4.2114 -7.52,4.50031 -1.408,0.0784 -2.776,0.0554 -3.04,-0.051 z m -92.319995,-2.46104 c -1.84793,-0.88712 -2.50253,-1.54016 -3.1878,-3.18023 -0.5754597,-1.37727 -0.6396097,-4.33472 -0.13358,-6.15752 0.55546,-2.00083 2.6022,-3.83228 4.84138,-4.33215 6.60379,-1.47421 11.50427,4.79845 8.44497,10.80964 -1.25898,2.47374 -2.8417,3.41538 -5.94157,3.53491 -2.02336,0.078 -2.68752,-0.0333 -4.0234,-0.67465 z M 2.4985955,67.723124 C 1.8092555,67.359166 1.0366995,66.586612 0.67273851,65.897268 0.3257385,65.240046 0.0332595,64.918321 0.0227865,65.182321 c -0.01693,0.426666 -0.05351,0.426666 -0.329243,0 -0.378058,-0.585005 -0.378058,-3.120211 0,-4 l 0.275017,-0.64 0.02299,0.64 c 0.01715,0.477517 0.165036,0.35727 0.58249101,-0.473622 1.25242399,-2.4928 4.79956399,-3.407236 7.15218399,-1.843796 1.2560595,0.83472 2.5304995,3.133108 2.5202895,4.545223 -0.011,1.521677 -1.11725,3.606717 -2.2943695,4.324387 -1.38308,0.843245 -3.84461,0.838102 -5.45355,-0.01139 z M 146.12081,43.4005 c -0.51299,-0.149065 -1.05079,-0.457139 -1.19509,-0.684605 -0.40622,-0.640307 -0.31896,-3.267276 0.12887,-3.879718 0.91777,-1.25513 4.27988,-0.898288 4.64368,0.492861 0.17423,0.666249 0.19348,0.669821 0.41077,0.07615 0.18265,-0.499008 0.27527,-0.38008 0.46579,0.598099 0.14001,0.718845 0.0988,1.508442 -0.10009,1.92 -0.18583,0.384471 -0.34763,0.511008 -0.35954,0.281194 -0.0127,-0.245875 -0.31799,-0.09431 -0.74166,0.368259 -0.84539,0.923005 -1.95404,1.205139 -3.25273,0.827763 z M 134.79494,31.913355 c -3.10225,-1.946603 -3.08881,-8.683172 0.0211,-10.574414 1.52306,-0.926225 3.37748,-1.103502 4.95221,-0.473416 1.87277,0.749331 2.80663,2.672041 2.79608,5.756796 -0.009,2.579133 -0.56522,3.887958 -2.12501,4.998624 -1.46516,1.04328 -4.22026,1.18601 -5.64436,0.29241 z M 37.293545,12.417507 c -2.42857,-1.120855 -3.68,-3.2556596 -3.68,-6.277657 0,-2.8135398 1.36608,-4.8856769 3.88645,-5.89514789 0.67797,-0.27154601 0.68936,-0.30610501 0.11355,-0.34459001 l -0.64,-0.04277 0.64,-0.2750171 c 0.88221,-0.3791 4.37338,-0.3791 4.96,0 0.42666,0.2757331 0.42666,0.3113291 0,0.3203641 -0.264,0.0056 0.09,0.33301701 0.78669,0.72761501 1.93362,1.09519699 3.14413,3.04021519 3.30878,5.31645199 0.1779,2.4594669 -0.32624,3.8959353 -1.85067,5.2731649 -2.02529,1.829724 -5.09619,2.318466 -7.5248,1.197591 z m -13.6,-2.182205 c -1.12638,-0.4141646 -1.6,-1.166795 -1.6,-2.5425781 0,-1.8299632 0.81027,-2.6704038 2.57454,-2.6704038 3.10238,0 4.08664,4.0885809 1.22446,5.0863419 -1.0916,0.380533 -1.45204,0.401291 -2.199,0.12664 z"
       id="use3895" />
    <text
       xml:space="preserve"
       style="font-style:normal;font-variant:normal;font-weight:normal;font-stretch:normal;font-size:40px;line-height:1.25;font-family:'Segoe Print';-inkscape-font-specification:'Segoe Print';fill:#000000;fill-opacity:1;stroke:none"
       x="184.83385"
       y="47.057438"
       id="text3901"><tspan
         id="tspan3899"
         x="184.83385"
         y="47.057438"
         style="font-style:normal;font-variant:normal;font-weight:normal;font-stretch:normal;font-family:'Segoe Print';-inkscape-font-specification:'Segoe Print'" /></text>
  </g>
  <path
     d="m 267.787,85.831749 q 0,0 0.26905,1.345293 l -1.07623,1.076235 q 0,2.690585 1.34529,5.381171 1.88341,0.538117 3.49777,1.614352 1.88341,1.076234 3.76682,2.690586 1.61435,-0.807176 3.49776,-0.807176 l 1.34529,-1.345293 q 0.53812,-2.690586 0.53812,-5.65023 -1.07624,-2.421528 -2.69059,-4.304938 -1.07623,-0.538117 -1.61435,-0.807175 -4.30494,0.538117 -7.8027,0 -0.80718,0 -1.07623,0.807175 z M 195.41024,33.634384 q -1.07624,-1.076235 -2.15247,-0.807176 -0.80718,0.269059 -1.34529,1.076234 2.42152,6.457406 4.03587,12.914812 -14.2601,4.843055 -28.52021,8.340817 -0.80717,1.614351 -0.53811,3.76682 2.15247,1.345293 5.38117,1.614351 0.53812,0.538117 1.07623,1.345293 h 4.574 q 0.53812,0.538117 1.61435,0.807176 9.14799,-3.228703 18.8341,-5.919289 1.34529,4.035879 1.61435,8.878933 -3.2287,2.690586 -6.99552,4.843055 -7.26458,1.614351 -13.99105,3.497762 -2.42152,1.614351 -2.95964,4.035878 2.42153,0.538118 5.65023,0.538118 3.2287,1.076234 6.72646,2.421527 6.18835,-0.269059 12.10764,-2.152469 0,3.228703 0,7.264582 -1.07623,1.88341 -1.61435,4.304937 -2.15247,1.345293 -3.49776,3.497762 -3.22871,2.152469 -6.99553,3.497761 h -4.30493 q -1.61436,-1.345292 -2.69059,-2.690585 -0.80718,0.538117 -1.61435,0.269058 -0.80718,-0.538117 -1.07624,-1.076234 -0.53811,-3.76682 -1.34529,-7.264582 -1.34529,-1.88341 -1.88341,-2.421527 -0.53812,2.959644 -0.53812,6.457406 1.07624,1.345293 1.61436,3.76682 -0.80718,0 -0.80718,0.538117 1.34529,1.076235 1.88341,2.959645 2.15247,2.152464 5.11211,4.573994 2.95965,0.26906 5.65023,1.61435 1.07624,-0.80717 2.42153,-0.53811 1.88341,1.07623 4.574,0.80717 0.53811,-0.53812 1.07623,-0.53812 0.80718,-0.26905 0.80718,1.07624 2.15247,-0.26906 4.30493,-0.80718 3.76682,-2.69058 8.07176,-4.573993 1.07624,-2.959644 2.15247,-5.65023 v -2.690586 l 0.80718,-0.807176 V 70.226351 q -1.61436,-5.112113 -1.3453,-9.147992 0,-1.614351 1.07624,-2.690585 -1.07624,-0.269059 -2.15247,-1.076235 -0.26906,-2.152468 -0.26906,-4.035878 l 1.07623,-1.076235 q 4.03588,-1.88341 9.148,-2.959644 0.53811,-2.421528 0,-4.573996 -1.3453,-1.076235 -2.69059,-1.614352 -5.65023,-0.269058 -10.76234,0 -1.88341,-3.497761 -3.22871,-6.188347 -2.42152,-1.614352 -4.57399,-1.88341 -1.61435,-1.345293 -2.15247,-2.421528 -0.80718,0.269059 -1.34529,1.076235 z m 45.4709,-26.6368001 q -0.26906,1.3452929 -0.26906,3.2287031 -1.07624,0.807176 -2.15247,1.076234 -11.56952,1.88341 -23.13904,3.228703 -1.88341,0.538117 -3.76682,1.345293 -2.69058,0 -4.84305,-0.269058 -0.26906,1.345293 -1.07624,2.959644 1.07624,1.88341 2.42153,4.035879 1.88341,0.538117 3.49776,2.152468 2.95965,0.269059 6.18835,0.269059 9.14799,-1.88341 18.29598,-3.76682 0.53812,0 1.07624,0.807176 -2.42153,8.340816 -4.574,16.681632 -0.53812,0.538117 -1.07623,0.538117 -3.49776,-2.959644 -6.99553,-4.843054 -1.34529,-0.807176 -2.42152,-0.807176 -0.80718,0 -1.3453,0.538117 0.80718,3.497762 3.22871,6.726465 2.42152,2.959644 5.65023,6.457406 v 2.690585 q -0.80718,1.076235 -1.3453,2.421528 -3.76682,15.336339 -7.53364,30.941737 -3.76682,9.147992 -7.8027,18.565038 1.07624,0.26906 2.95965,-0.53811 0.53812,0.80717 1.34529,1.61435 0.26906,-1.61435 1.3453,-2.69059 1.07623,-1.34529 2.95964,-1.34529 2.42153,-3.497762 5.11211,-7.264582 2.42153,-8.878933 4.84306,-17.757866 0.53811,-0.538118 1.34529,-0.269059 0.26906,2.690586 0.26906,6.188347 2.15247,3.228703 4.57399,5.919289 -1.88341,1.88341 -4.03587,3.497762 -5.11212,8.878933 -9.41705,18.026929 -0.53812,1.07623 -0.26906,2.42152 1.88341,1.88341 2.95964,4.03588 1.07624,-1.07623 2.15247,-1.88341 1.61435,0.26906 3.76682,0.53812 1.61435,-1.34529 4.03588,-1.34529 3.76682,4.30493 8.07176,8.34081 h 1.34529 q 1.34529,0.53812 2.15247,2.15247 3.76682,1.61435 8.07176,3.2287 1.61435,-1.88341 3.76682,-3.2287 1.34529,-3.2287 1.88341,-6.4574 -0.26906,-10.22423 -0.53812,-19.91034 -1.61435,-6.995523 -3.76682,-12.914812 0.26906,-1.614352 1.07623,-2.690586 3.22871,-2.690586 6.18835,-5.919289 0,-1.345293 1.07623,-2.152469 0.26906,-3.76682 0.53812,-7.264581 -1.61435,-1.614352 -1.88341,-3.766821 -3.76682,-3.497761 -7.26458,-6.457406 -4.574,-0.538117 -8.87893,0.538117 -0.80718,-0.538117 -1.07624,-0.807175 0.26906,-2.690586 1.88341,-4.573996 1.3453,0 2.69059,-0.538117 0,-0.807176 0.26906,-1.076235 0.53811,-0.538117 1.61435,-0.269058 0.80717,-1.614352 2.15247,-2.690586 1.61435,-1.076235 2.95964,0.538117 8.60988,11.031402 17.21975,22.062804 -0.53812,2.152469 1.34529,4.035879 0.53812,-0.538117 1.3453,-0.269059 l 1.07623,1.076234 q 3.2287,0 6.18835,-0.807175 0.26906,-3.228703 0.53812,-6.188348 -11.56952,-13.991046 -22.86998,-28.251151 0,-2.959645 -0.53812,-5.112113 -1.88341,-1.345293 -2.42153,-3.228703 -1.61435,-1.076235 -3.2287,-1.614352 -1.88341,0.538117 -2.95965,2.421527 h -3.2287 q -0.53812,-1.076234 -1.07623,-1.345292 h -2.42153 q -1.07623,-0.269059 -1.34529,-1.076235 1.07623,-3.76682 2.15247,-7.53364 0.53811,-1.076235 1.61435,-1.345293 7.26458,0.269058 14.2601,-0.807176 -0.26906,-1.076234 0.80718,-1.345293 2.42152,0 4.57399,-1.345293 0,-2.421527 -0.53811,-4.304937 -2.42153,-1.0762345 -4.30494,-2.1524688 -7.26458,1.6143515 -14.79822,2.4215268 -1.88341,-3.2287025 -4.30494,-5.6502298 h -3.49776 q -1.07624,0.8071757 -1.88341,2.1524687 z m 9.68611,78.8341651 q 0.80717,2.421528 1.34529,5.381172 v 4.304937 q 0.26906,0.269059 0.80718,1.076235 v 12.107637 q -0.53812,2.69058 -2.15247,5.11211 -4.03588,0 -7.8027,-1.07623 -2.69059,-2.15247 -4.30494,-4.30494 2.15247,-6.45741 6.99552,-11.838577 -0.80717,-2.421528 -0.53811,-4.304938 -1.3453,-1.88341 -1.88341,-3.76682 1.07623,-1.076234 2.15247,-1.88341 2.69058,-0.538117 5.38117,-0.807176 z m -14.52917,-8.340816 q 0.80718,0.269059 1.3453,1.345293 -1.07624,1.076234 -2.42153,1.614352 -0.53812,-0.807176 0,-1.345293 0.53812,-0.807176 1.07623,-1.614352 z m 11.03141,-1.88341 q 0.26905,0.269059 0.26905,1.076234 -1.61435,1.614352 -3.76682,2.152469 h -1.88341 q -0.53811,-0.807176 -0.26906,-1.614351 2.69059,-1.345293 5.65024,-1.614352 z m -2.42153,-1.345293 q 0.80717,0.269059 0.26906,1.076234 -1.61436,0 -2.42153,-0.538117 0.80717,-1.076234 2.15247,-0.538117 z m 9.14799,-2.152469 q 0.26906,0.269059 0.53812,1.076235 -1.3453,1.076234 -2.42153,2.152468 h -1.61435 q -0.53812,-0.538117 -0.53812,-1.076234 1.88341,-1.076234 4.03588,-2.152469 z m -2.42153,-2.421527 q 0.80718,0.807176 0.26906,1.88341 -0.26906,1.076235 -0.53812,0.807176 -0.80717,-1.614351 0.26906,-2.690586 z m -0.26906,-12.645753 h 0.80718 q 3.2287,4.035878 5.38117,8.878933 -3.2287,0 -5.91929,1.076234 -0.53811,0 -0.53811,0.807176 -4.574,0.538117 -7.53365,0.269059 0.26906,-2.152469 1.88342,-3.497762 2.69058,-2.421527 5.65023,-5.112113 -0.26906,-1.345293 0.26905,-2.421527 z m -13.18387,-3.497762 q 1.07624,0 2.42153,0.269059 0.53812,0.269058 0.53812,1.076234 l -3.22871,3.228703 q -0.80717,0 -1.07623,-0.538117 0.53812,-2.152469 1.34529,-4.035879 z m 7.26459,-21.524687 q 0.53811,0.269059 1.34529,0.269059 2.15247,2.152469 3.76682,4.843054 -2.42153,4.573996 -4.574,9.147992 0.53812,1.345293 2.42153,1.345293 -0.53812,-1.345293 -0.53812,-2.690586 0.53812,0.538118 2.15247,0.807176 -1.34529,3.228703 -3.76682,5.381172 -0.80717,-0.269059 -0.53812,-0.807176 0.26906,-0.807176 1.07624,-1.076234 -0.26906,-0.807176 -0.53812,-1.076235 -1.34529,0.807176 -1.88341,2.959645 l 0.80718,0.807176 q -0.80718,0.538117 -0.80718,1.614351 -0.80718,0.538117 -1.88341,0.538117 -1.07623,-1.076234 -0.26906,-1.88341 -1.34529,-1.345293 -2.42153,-2.421527 v -2.421527 q 2.69059,-8.071758 5.65024,-15.33634 z"
     style="font-style:normal;font-variant:normal;font-weight:normal;font-stretch:normal;font-size:137.758px;line-height:1.25;font-family:Muyao-Softbrush;-inkscape-font-specification:Muyao-Softbrush;font-variant-ligatures:normal;font-variant-caps:normal;font-variant-numeric:normal;font-variant-east-asian:normal;letter-spacing:0px;word-spacing:-18.4616px;fill:#395ca3;fill-opacity:1;stroke:none;stroke-width:1.43723;stroke-miterlimit:4;stroke-dasharray:none;stroke-opacity:1"
     id="path2857" />
  <path
     d="m 398.23558,82.333988 q -1.61435,0.269058 -2.95965,0.269058 -2.69058,1.076235 -4.57399,3.228703 -0.53812,1.614352 0.53811,3.497762 l -1.07623,1.076234 q 0.80718,1.076235 2.69059,1.614352 0,0.807176 -0.53812,1.614351 2.42153,1.88341 6.4574,4.573996 2.95965,0 6.45741,0 0.53812,-1.076234 1.34529,-1.88341 h 1.07624 q 0.80717,-3.497761 1.61435,-6.726464 -0.53812,-2.690586 -0.53812,-4.573996 -1.34529,-1.345293 -1.88341,-2.690586 -3.2287,-1.345293 -6.72646,-1.345293 -1.3453,0.269058 -1.88341,1.345293 z M 365.67949,12.647814 q -2.42153,0.807176 -4.30494,2.152469 -2.15247,2.152469 -5.11211,4.304937 h -1.34529 q -1.61436,2.421527 -4.03588,4.035879 -2.15247,3.76682 -4.30494,8.071758 -2.42153,6.457406 -4.03588,13.18387 -0.53812,4.304938 0.53812,8.340816 3.2287,3.497762 7.26458,6.457406 4.30494,0.807176 9.14799,1.076235 2.95965,-1.345293 6.18835,-2.959645 1.07623,0.269059 1.61435,1.614352 v 3.497761 q -11.30046,3.497762 -22.33186,6.726465 -6.45741,2.421527 -12.64576,4.843055 0.53812,-14.529164 0.53812,-30.134562 -1.07623,-2.959644 -1.61435,-5.919289 5.38117,-3.497761 10.49328,-7.264582 0.53812,-2.152468 0.53812,-4.035878 -1.61435,-1.076235 -2.95964,-1.345293 -3.22871,0 -5.91929,0.269058 -4.30494,1.614352 -8.34082,3.497762 -1.34529,1.345293 -2.42152,2.690586 -11.03141,6.188347 -21.79375,13.452929 -1.34529,1.076234 -1.07623,2.421527 0.53811,1.345293 1.61435,2.421527 1.07623,-0.269058 1.88341,-0.807175 1.07623,0.269058 1.07623,1.88341 0.26906,-1.076235 1.07624,-1.88341 1.07623,0.538117 2.69058,0.807175 1.61435,0 3.2287,-0.269058 2.95965,-1.614352 6.18835,-3.228703 l 0.80718,0.807176 q -0.53812,6.726464 -0.53812,13.991046 -0.80718,1.076234 -0.80718,2.421527 -0.26905,15.067281 -0.53811,30.672679 0.53811,2.959644 1.61435,5.919286 1.61435,1.07624 3.49776,2.42153 0,1.07623 0.80718,2.42153 2.69058,0 5.38117,0.26906 1.07623,-0.80718 1.34529,-1.88341 h 1.34529 q 0.26906,-1.07624 1.07624,-1.88341 -0.26906,-3.766824 -0.80718,-7.264586 0.53812,-5.381172 0.80718,-11.569519 0.26906,-0.807176 1.07623,-0.269059 0.80718,0.269059 0.80718,1.345293 5.65023,-1.88341 11.30046,-3.228703 0,1.614352 -0.53812,3.76682 l -2.42153,2.421528 q -3.2287,5.65023 -4.57399,12.376695 -0.53812,1.614351 0.80717,2.959641 1.07624,-0.80717 2.69059,-0.80717 0.80718,1.07623 0.80718,2.69058 1.07623,0.53812 2.69058,1.07624 0.26906,-0.53812 0.53812,-1.07624 0.53812,0.53812 1.07623,1.3453 1.3453,-0.80718 3.22871,-1.61436 3.49776,-6.457402 6.99552,-12.107632 1.34529,-4.843054 3.2287,-9.147992 -1.07623,-1.614351 -1.61435,-2.959644 -1.34529,-1.076234 -2.69058,-1.345293 -1.07624,-0.538117 -0.26906,-1.345293 5.91929,-2.152469 12.10763,-3.497762 1.07624,10.493285 0.26906,21.793746 -1.07623,3.497761 -1.34529,7.53364 -2.15247,2.42153 -3.49776,5.38117 -1.88341,0.80718 -4.03588,1.07624 -5.11211,-1.3453 -9.14799,-3.22871 -1.07624,1.3453 -2.69059,1.3453 0.80718,1.34529 2.42153,1.34529 1.61435,1.34529 2.42153,3.2287 -1.07624,0.26906 -0.53812,1.07624 0.80717,0.53811 2.15247,0.26906 2.42152,1.07623 4.57399,2.95964 h 1.3453 q -0.26906,1.34529 0.26905,2.69059 1.3453,-0.80718 3.22871,-0.53812 0.53811,0.53812 1.07623,1.34529 2.42153,-0.53812 5.38117,-0.26906 1.07624,-0.80717 2.42153,-1.61435 0.80718,0 1.88341,0.26906 2.42153,-2.42153 4.84306,-4.574 1.34529,-3.76682 3.76682,-6.72646 0.53811,-3.49776 1.34529,-6.45741 0.53812,-15.336336 0.53812,-30.672676 l 0.80717,-0.807176 q 0.80718,0.538118 2.42153,0.538118 2.42153,-1.345293 5.65023,-1.076235 1.07623,-1.076234 2.42153,-1.614351 0.80717,-1.614352 1.88341,-3.228703 0,-1.614352 -0.26906,-2.690586 -2.42153,-0.807176 -4.574,-1.614352 -5.11211,-0.269058 -9.68611,0.269059 -1.88341,-3.228703 -4.30493,-5.65023 -2.69059,-1.076235 -5.38118,-1.345293 5.11212,-5.919289 11.03141,-11.300461 1.34529,-2.959644 3.76682,-5.381172 1.61435,-5.65023 2.95964,-11.30046 -0.80718,-4.035879 -1.07623,-8.071758 -1.61436,-2.690586 -3.49777,-5.112113 -4.84305,-1.6143513 -9.95516,-1.3452927 -5.11212,1.6143517 -9.95517,2.6905857 z m -18.29598,66.726529 h 1.07623 q 0.26906,0.538117 0.26906,1.345293 -1.34529,1.345293 -2.69059,3.228703 -1.07623,0 -1.34529,-0.807176 0.80718,-1.88341 2.69059,-3.76682 z m 28.25115,-59.192888 q 0.80717,0.269058 1.07623,1.345292 v 5.112114 q -1.34529,2.152468 -1.88341,4.843054 -6.45741,7.533641 -12.37669,13.991047 -2.69059,1.345292 -5.38118,4.035878 l -0.80717,-0.807175 q 0.26906,-2.421528 0.53812,-4.573996 2.42152,-6.726465 4.84305,-13.45293 2.69059,-3.76682 5.65023,-7.264581 4.03588,-2.152469 8.34082,-3.228703 z"
     style="font-style:normal;font-variant:normal;font-weight:normal;font-stretch:normal;font-size:137.758px;line-height:1.25;font-family:Muyao-Softbrush;-inkscape-font-specification:Muyao-Softbrush;font-variant-ligatures:normal;font-variant-caps:normal;font-variant-numeric:normal;font-variant-east-asian:normal;letter-spacing:0px;word-spacing:-18.4616px;fill:#395ca3;fill-opacity:1;stroke:none;stroke-width:1.43723;stroke-miterlimit:4;stroke-dasharray:none;stroke-opacity:1"
     id="path2859" />
  <path
     d="m 435.276,66.459531 q -1.88341,1.88341 -2.69059,4.304938 0.26906,9.41705 0.26906,18.565042 0.26906,0.538117 0.80718,1.076234 -0.53812,5.112113 0.53811,10.224225 0.26906,0.53812 1.3453,0.53812 2.95964,-2.15247 6.18834,-4.03588 7.8027,0.269058 15.87446,0 0.80718,1.076234 1.34529,2.421527 0,4.304933 0,8.340813 -4.03588,0.53812 -7.53364,1.61435 -7.8027,0 -14.2601,1.3453 -0.53812,1.61435 -1.61435,2.95964 0.53811,1.3453 2.15247,2.42153 h 1.34529 q 1.07623,0.80718 2.15247,2.15247 4.57399,0.80717 9.95516,0.53812 12.10764,-2.15247 23.94622,-4.84306 14.79822,-0.53812 30.67268,-0.53812 2.15247,-1.07623 4.84305,-1.34529 1.34529,-1.61435 1.34529,-3.76682 -1.07623,-2.15247 -2.69058,-4.03588 -3.76682,-0.53812 -7.26458,-0.53812 -14.26011,0.80718 -27.9821,1.3453 -1.61435,0.53811 -3.2287,0.80717 -1.61435,0.26906 -1.34529,-1.34529 0.53812,-1.61435 1.34529,-2.95964 0,-3.228707 0.26906,-6.188352 l 1.07623,-1.076234 q 4.574,-1.076234 9.41705,-1.88341 4.03588,-1.88341 8.60988,-3.497762 1.34529,-1.614351 2.42153,-3.497761 -1.61436,-1.345293 -2.42153,-2.421528 -2.15247,-0.807175 -5.11211,-0.807175 -5.65023,1.614351 -10.76235,3.76682 -1.61435,0.269058 -2.42152,-0.538117 0.80717,-3.228703 0.53811,-6.726465 4.03588,-0.538117 8.60988,-0.269058 3.2287,1.076234 7.53364,1.345292 1.34529,-1.88341 3.49776,-3.228703 v -1.076234 q -1.34529,-1.614351 -2.95965,-2.959644 -2.15246,-0.538118 -3.76682,-1.345293 -6.72646,-0.807176 -13.45292,-0.538117 -0.80718,-0.807176 -0.80718,-1.614352 -2.69059,-1.345293 -4.84305,-2.421527 -3.49777,0.538117 -6.45741,1.345293 0,1.88341 -0.80718,4.573996 -6.72646,1.614351 -12.91481,2.690585 -0.80717,-2.959644 -1.07623,-5.919288 -2.15247,-2.690586 -4.84306,-3.228703 -2.69058,-0.538118 -4.84305,0.269058 z m 23.67715,14.529164 q 0.26906,2.959644 0.26906,6.726464 -0.26906,0.807176 -0.80717,1.614352 -6.45741,0.269059 -12.91482,0.807176 -0.80717,-2.959645 -0.53811,-5.919289 0,-1.076235 1.07623,-1.345293 1.07624,-0.269059 2.95965,0 4.84305,-1.345293 9.95516,-1.88341 z m 10.49329,-69.955232 q -0.53812,0.807175 -1.07624,1.345293 -8.34081,2.421527 -16.41257,4.843054 -1.61435,-2.421527 -3.49776,-3.497762 -1.07624,1.345293 -1.61435,3.228704 -2.95965,2.690585 -4.84306,5.381171 0.26906,1.076235 1.61435,1.88341 -1.07623,8.609875 -2.15246,16.950691 -2.15247,5.65023 -4.03588,11.300461 -0.26906,2.959644 1.07623,5.381171 1.34529,1.076235 3.2287,2.152469 -0.26905,0.538117 0.26906,1.345293 7.53364,2.152469 15.6054,3.497762 3.76682,-0.538117 7.53364,0.538117 4.84306,-1.076234 11.30046,-1.345293 4.03588,-1.614352 8.07176,-3.228703 2.42153,-2.959645 5.11211,-5.381172 -1.34529,-5.919289 -1.34529,-12.107636 -0.53812,-1.076234 -1.07624,-1.614352 0.53812,-2.152468 0.53812,-4.573996 -1.07623,-3.228703 -1.07623,-6.995523 0,-3.76682 0.26906,-7.264582 -0.80718,0 -1.07624,-1.076234 0.26906,-3.228703 1.34529,-5.919289 -0.80717,-2.421527 -2.42152,-4.035879 -3.22871,-0.807175 -5.91929,-1.345293 -5.11211,-0.269058 -9.41705,0.538118 z m -20.71751,33.632323 h 5.38117 q 1.61435,0.807176 3.49776,1.076234 8.87893,0.269059 18.02693,1.614352 -0.53812,2.690585 0,6.457406 -0.53812,0.538117 -1.07624,1.614351 -2.69058,1.345293 -5.65023,2.152469 -11.0314,-1.345293 -22.33186,-2.152469 -0.53812,-1.076234 -0.26906,-2.152468 0.80718,-4.573996 2.42153,-8.609875 z m 26.09868,-26.6368 q 0.53812,0.538117 1.61435,0.807176 0.26906,1.345293 0.80718,2.690585 -0.26906,3.497762 0,8.071758 -0.80718,0.807176 -0.80718,2.152469 v 5.919289 q -0.26906,0.538117 -0.80717,0.807175 -3.76682,-0.538117 -7.26459,-0.269058 -0.80717,-0.538117 -1.07623,-0.807176 -9.14799,-0.807176 -16.68163,-1.614352 0.26906,-5.381171 1.34529,-9.955167 2.69059,-2.421527 6.18835,-2.690586 0.53811,-0.807176 0.80717,-1.614352 4.30494,-1.345292 8.60988,-3.228703 2.15247,-0.269058 4.03588,0.538118 1.34529,-0.807176 3.2287,-0.807176 z"
     style="font-style:normal;font-variant:normal;font-weight:normal;font-stretch:normal;font-size:137.758px;line-height:1.25;font-family:Muyao-Softbrush;-inkscape-font-specification:Muyao-Softbrush;font-variant-ligatures:normal;font-variant-caps:normal;font-variant-numeric:normal;font-variant-east-asian:normal;letter-spacing:0px;word-spacing:-18.4616px;fill:#395ca3;fill-opacity:1;stroke:none;stroke-width:1.43723;stroke-miterlimit:4;stroke-dasharray:none;stroke-opacity:1"
     id="path2861" />
  <path
     d="m 591.58113,79.374343 q -5.91929,2.959645 -11.56952,5.650231 -5.91929,1.345292 -11.30046,2.959644 -1.07624,-1.345293 -2.69059,-0.807176 -0.80717,1.614352 -0.53811,4.035879 h 1.07623 q 0.53812,0.538117 0.53812,1.614352 l -0.80718,0.807175 q 0.80718,0.269059 2.69059,0.269059 0.53811,0.807176 1.07623,1.88341 1.61435,0.807176 3.76682,1.076234 l 0.80718,-0.807175 q 1.07623,-0.269059 1.88341,0.807175 4.30494,-1.345293 9.41705,-2.421527 4.03588,-2.690586 8.34081,-5.381172 v -1.345293 q 0.26906,-0.807175 1.3453,-0.538117 0.80717,-1.614351 1.88341,-2.959644 -0.53812,-2.959645 -1.07624,-5.65023 -2.69058,0 -4.84305,0.807175 z M 544.49588,37.401204 q -4.03588,0.807176 -8.07176,1.88341 h -6.18835 q -1.61435,0.807176 -1.07623,2.690586 -1.07624,1.076234 -2.42153,1.88341 0.53812,1.345293 1.34529,2.959644 1.61435,0 3.22871,1.076235 1.07623,-0.269059 2.15246,0 1.3453,0.269058 2.15247,1.076234 4.30494,-0.538117 8.87894,-1.345293 l 0.53811,0.538117 -1.88341,1.88341 q -0.26906,2.421528 -0.80717,4.304938 l 0.80717,0.807176 q -0.80717,1.345293 -1.07623,2.959644 -5.11211,1.614352 -9.95517,2.690586 -1.34529,1.614351 -2.42153,2.690586 -0.80717,1.076234 0,2.421527 -1.61435,0 -1.34529,1.614352 6.45741,0 13.45293,0.807175 0.26906,6.726465 0.80718,14.260105 -2.69059,0.807176 -5.65023,1.614352 -4.574,0 -8.34082,-0.269059 0,1.076235 -0.26906,2.421527 0.53812,-0.269058 1.07624,0.538118 -0.53812,1.88341 0.26905,3.76682 h 2.42153 q 0.53812,1.076234 1.34529,1.88341 2.15247,0.807176 4.574,1.345293 4.84305,0.269058 9.95517,0 4.30494,-1.88341 8.87893,-2.690586 3.2287,-2.690586 7.26458,-4.304937 1.88341,-2.421528 3.76682,-4.304938 -0.80717,-2.690586 -0.80717,-4.573996 -0.80718,-0.807175 -1.3453,-1.076234 -5.11211,0.807176 -9.6861,2.690586 l -0.80718,-0.807176 q 0.53812,-4.843054 0.80718,-9.41705 0.53811,-1.345293 1.61435,-2.421528 3.2287,-0.807175 6.4574,-2.421527 1.07624,-1.614351 2.42153,-2.959644 0,-2.959645 -1.88341,-4.304938 -3.76682,-0.538117 -7.26458,0.269059 -1.07624,-4.035879 -0.80718,-8.071758 -1.07623,0 -1.34529,-1.076234 -0.26906,-1.076234 1.34529,-1.076234 1.61435,0 4.30494,0.269058 2.69059,-1.076234 5.91929,-1.88341 1.07623,-1.614351 2.95964,-2.959644 -0.53811,-1.88341 -0.53811,-3.76682 -1.88341,-1.345293 -3.49777,-2.152469 -11.0314,-0.538117 -21.25562,0.538117 z m 48.6996,-9.41705 q -0.80718,2.152468 0,4.573995 0.80718,2.421528 1.34529,5.112114 -0.26906,0.538117 -0.80717,1.076234 -2.95965,0.269059 -5.65023,0.538117 -4.03588,0.807176 -7.8027,2.421527 -3.22871,0.269059 -6.45741,0.538118 -1.61435,0.538117 -2.69058,1.614351 -0.53812,2.152469 -0.26906,3.76682 1.34529,-0.269058 3.49776,0.269059 2.42153,1.614351 5.38117,2.959644 8.34082,-1.076234 16.68163,-2.690586 0.26906,0.269059 0.80718,1.076235 0.53812,5.919289 0.53812,12.376695 0.26905,0.807175 0.80717,2.152468 -1.07623,1.076235 -2.42153,1.076235 -0.26905,-0.807176 -0.80717,-1.076235 -2.15247,-0.538117 -4.03588,-0.538117 -2.42153,-1.614351 -5.38117,-2.421527 -2.42153,0 -4.574,0 -0.80717,0.269058 -1.34529,1.076234 -3.49776,-0.269058 -7.26458,0.269059 -0.80718,1.88341 -1.07624,4.304937 0.80718,0.538117 0.53812,1.88341 2.15247,0.538117 4.84305,1.345293 l 1.3453,1.345293 q 5.38117,1.345293 11.30046,2.690586 1.61435,0 3.76682,-0.269059 2.15247,-0.538117 4.03588,-1.88341 0.80717,0 1.61435,0.807176 0.53812,11.300461 -0.26906,22.600921 -1.34529,3.228703 -2.42153,6.726469 -2.15247,1.61435 -4.03588,3.49776 -2.69058,1.07623 -4.84305,2.42152 -1.88341,0.26906 -3.49776,0.53812 -2.69059,-1.34529 -5.65023,-1.34529 -2.42153,-2.15247 -5.11212,-3.49776 -1.34529,0 -2.15246,0.53811 0,-2.42152 -0.80718,-4.035874 -0.53812,2.421524 -0.26906,5.112114 1.34529,2.95964 2.95965,5.11211 h -2.69059 q -0.53812,0.26906 0,0.80718 2.69059,0 5.65023,1.34529 2.95965,1.34529 5.91929,3.76682 3.49776,0.80718 7.8027,1.34529 4.57399,0.53812 9.41705,-0.26905 2.69058,-1.61436 5.38117,-2.95965 2.69059,-2.95964 5.91929,-5.65023 1.61435,-4.574 3.2287,-9.147991 0.26906,-6.457406 0.53812,-12.645754 0.53812,-0.807176 1.61435,-1.076234 5.11211,0.269058 10.49329,0.538117 4.03587,-1.345293 8.34081,-3.228703 1.61435,-1.614352 2.69059,-3.497762 -0.26906,-2.421527 -1.61435,-3.76682 -4.03588,-1.614351 -8.60988,-1.345293 -1.07623,0.807176 -2.15247,1.345293 h -4.30493 q -0.53812,-0.807176 -1.61436,-0.807176 -2.15246,0.807176 -4.30493,1.076235 -1.07624,-2.152469 -0.53812,-4.573996 0.26906,-0.807176 1.07623,-0.538117 2.15247,1.345292 5.11212,1.345292 0.26906,-0.538117 1.07623,-0.807175 2.15247,0.269058 4.574,0 3.76682,-1.345293 6.99552,-4.035879 v -1.88341 q -0.80718,-1.88341 -2.15247,-3.228703 -4.57399,0 -8.87893,0.269058 -2.95965,-0.807175 -5.65023,-0.807175 -0.80718,0.807175 -1.61435,1.88341 -0.80718,-0.807176 -1.07624,-1.345293 -0.80717,-8.340816 -1.61435,-16.412574 7.53364,-0.807176 15.33634,-2.152469 1.34529,-2.152468 2.69059,-3.497761 v -2.152469 q -0.80718,-1.614351 -2.15247,-2.421527 -9.68611,-0.538117 -17.75787,0.538117 -1.34529,-2.152469 -1.61435,-4.304937 -1.61435,-1.88341 -2.95964,-3.76682 -1.61436,-0.807176 -2.95965,-1.076235 -0.80718,1.076235 -2.15247,0.807176 l -0.80717,-0.807176 q -3.49777,0.538117 -6.45741,1.076235 z m 31.74891,-15.33634 q -0.26906,1.076234 -1.34529,1.614352 h -3.49776 q -1.34529,1.076234 -2.95965,1.614351 -1.61435,1.614352 -2.95964,3.76682 0,1.345293 1.07623,2.959645 -0.80717,0.807176 -0.80717,1.88341 1.34529,0.269058 1.34529,1.88341 5.11211,-0.269059 10.76234,0 3.49777,-2.959644 6.18835,-6.726465 v -2.959644 q -1.07623,-2.421527 -2.69058,-4.035879 -2.69059,-0.807176 -5.11212,0 z"
     style="font-style:normal;font-variant:normal;font-weight:normal;font-stretch:normal;font-size:137.758px;line-height:1.25;font-family:Muyao-Softbrush;-inkscape-font-specification:Muyao-Softbrush;font-variant-ligatures:normal;font-variant-caps:normal;font-variant-numeric:normal;font-variant-east-asian:normal;letter-spacing:0px;word-spacing:-18.4616px;fill:#395ca3;fill-opacity:1;stroke:none;stroke-width:1.43723;stroke-miterlimit:4;stroke-dasharray:none;stroke-opacity:1"
     id="path2863" />
</svg>
